<?xml version="1.0" encoding="utf-8"?>
<!-- Generator: Adobe Illustrator 26.0.0, SVG Export Plug-In . SVG Version: 6.00 Build 0)  -->
<svg version="1.1" id="图层_1" xmlns="http://www.w3.org/2000/svg" xmlns:xlink="http://www.w3.org/1999/xlink" x="0px" y="0px"
	 viewBox="0 0 238.67 211.71" style="enable-background:new 0 0 238.67 211.71;" xml:space="preserve">
<style type="text/css">
	.st0{fill:url(#SVGID_1_);}
	.st1{fill:url(#SVGID_00000088839655364988964770000009877212443496050067_);}
	.st2{fill:url(#SVGID_00000123431993975569537960000002761179912966191247_);}
	.st3{fill:url(#SVGID_00000016049739197998780310000003206818132191119294_);}
	.st4{fill:url(#SVGID_00000021119439640351847540000014864945665092473011_);}
	.st5{fill:url(#SVGID_00000088093425236780821310000006872755634251235259_);}
	.st6{fill:url(#SVGID_00000082364398700378175460000000413581661452189601_);}
</style>
<g>
	<linearGradient id="SVGID_1_" gradientUnits="userSpaceOnUse" x1="221.8441" y1="101.0531" x2="107.6534" y2="-12.9636">
		<stop  offset="0" style="stop-color:#0FD9FF"/>
		<stop  offset="1" style="stop-color:#1D65E0"/>
	</linearGradient>
	<path class="st0" d="M207.04,108.13c18.9-7.08,23.78-29.79,24.94-44c-2.05-4.73-4.59-9.47-7.65-14.14
		C195.32,5.78,122.83-8.69,69.48,4.93c0,0,39.2-0.43,62.17,24.4c0,0,38.79-1.19,63.78,29.37s4.41,63.67-16.56,45.26
		c-1.02-0.9-2.04-1.88-3.05-2.95c0.38,0.59,0.79,1.21,1.23,1.84C181.98,108.69,191.09,114.1,207.04,108.13z"/>
	
		<linearGradient id="SVGID_00000083076603142191456130000012600518845864555154_" gradientUnits="userSpaceOnUse" x1="175.1783" y1="101.579" x2="177.0635" y2="101.579">
		<stop  offset="0" style="stop-color:#0FD9FF"/>
		<stop  offset="1" style="stop-color:#1D65E0"/>
	</linearGradient>
	<path style="fill:url(#SVGID_00000083076603142191456130000012600518845864555154_);" d="M175.83,101.01
		c-0.22-0.23-0.43-0.46-0.65-0.7c0.54,0.83,1.17,1.69,1.89,2.54C176.62,102.22,176.21,101.6,175.83,101.01z"/>
	
		<linearGradient id="SVGID_00000023238949267306501580000004501535064598162364_" gradientUnits="userSpaceOnUse" x1="191.4874" y1="201.4884" x2="92.9631" y2="126.1156">
		<stop  offset="0" style="stop-color:#0FD9FF"/>
		<stop  offset="1" style="stop-color:#1D65E0"/>
	</linearGradient>
	<path style="fill:url(#SVGID_00000023238949267306501580000004501535064598162364_);" d="M103.87,130.76
		c-21.12,5.71-37.91,6.87-50.28,6.32c3.4,1.23,6.98,2.38,10.77,3.43c70.32,19.5,111.75,21.93,129.51,71.2
		c0,0,10.04-61.68-50.31-82.34c-1.18-0.4-2.35-0.8-3.51-1.19C130.28,126.62,118.26,126.87,103.87,130.76z"/>
	
		<linearGradient id="SVGID_00000110430365048677506710000012207315557967240345_" gradientUnits="userSpaceOnUse" x1="5.684" y1="95.2466" x2="58.6016" y2="37.2809">
		<stop  offset="0" style="stop-color:#0FD9FF"/>
		<stop  offset="1" style="stop-color:#1D65E0"/>
	</linearGradient>
	<path style="fill:url(#SVGID_00000110430365048677506710000012207315557967240345_);" d="M17.37,30.52
		c-3.81,3.6-7.08,7.69-9.7,12.24C-2.22,59.89-5,88.44,14.4,111.5c-2.15-20.94,0.37-55.79,40.12-62.81c3.29-1.21,7.08-2.05,11.4-2.41
		c9.07-0.76,17.3,2.4,24.86,7.9c0,0,0,0,0,0C66,25.61,38.56,24.52,17.37,30.52z"/>
	
		<linearGradient id="SVGID_00000183230067543859848590000008496630121148875936_" gradientUnits="userSpaceOnUse" x1="199.4328" y1="120.0869" x2="226.7619" y2="78.8321">
		<stop  offset="0" style="stop-color:#0FD9FF"/>
		<stop  offset="1" style="stop-color:#1D65E0"/>
	</linearGradient>
	<path style="fill:url(#SVGID_00000183230067543859848590000008496630121148875936_);" d="M231.98,64.13
		c-1.16,14.21-6.04,36.93-24.94,44c-15.94,5.97-25.06,0.55-29.98-5.28c6.26,8.91,18.99,20.96,41.81,20.14
		c5.15-0.18,10-1.34,14.54-3.19C240.48,104.98,240.81,84.56,231.98,64.13z"/>
	
		<linearGradient id="SVGID_00000159430112082704254130000006424774803529865095_" gradientUnits="userSpaceOnUse" x1="83.2168" y1="35.6968" x2="218.4701" y2="162.2465">
		<stop  offset="0" style="stop-color:#0FD9FF"/>
		<stop  offset="1" style="stop-color:#1D65E0"/>
	</linearGradient>
	<path style="fill:url(#SVGID_00000159430112082704254130000006424774803529865095_);" d="M177.06,102.85
		c-0.71-0.85-1.34-1.71-1.89-2.54c-19.49-21.19-37.77-70.97-75.99-82.54C65.68,7.62,35.37,13.54,17.37,30.52
		c21.19-6,48.63-4.91,73.41,23.66c0,0,0,0,0,0c18.84,13.69,33.56,41.84,46.97,59.64c18.8,24.95,47.65,33.53,71.72,26.92
		c10.73-2.95,18.99-10.57,23.94-20.95c-4.54,1.85-9.39,3.01-14.54,3.19C196.05,123.8,183.32,111.76,177.06,102.85z"/>
	
		<linearGradient id="SVGID_00000110442697956404459260000012957792187356247442_" gradientUnits="userSpaceOnUse" x1="101.3989" y1="119.927" x2="22.7188" y2="76.4092">
		<stop  offset="0" style="stop-color:#0FD9FF"/>
		<stop  offset="1" style="stop-color:#1D65E0"/>
	</linearGradient>
	<path style="fill:url(#SVGID_00000110442697956404459260000012957792187356247442_);" d="M14.4,111.5
		c8.45,10.04,21.09,19.03,39.19,25.59c12.37,0.55,29.16-0.61,50.28-6.32c14.39-3.89,26.41-4.14,36.18-2.58
		c-57.94-19.45-85.39-19.21-96.99-35.14C32.84,79.02,33.7,56.34,54.52,48.69C14.77,55.7,12.25,90.55,14.4,111.5z"/>
</g>
</svg>
